<mxfile host="app.diagrams.net" modified="2022-09-08T02:51:47.773Z" agent="5.0 (X11; Linux x86_64) AppleWebKit/537.36 (KHTML, like Gecko) Chrome/105.0.0.0 Safari/537.36" etag="taxl5WmQhq4OfkyBXVM9" version="20.3.0" type="github">
  <diagram id="JnsLUQ7ZktXSqWJvgSKb" name="Page-1">
    <mxGraphModel dx="2272" dy="1873" grid="1" gridSize="10" guides="1" tooltips="1" connect="1" arrows="1" fold="1" page="1" pageScale="1" pageWidth="850" pageHeight="1100" math="0" shadow="0">
      <root>
        <mxCell id="0" />
        <mxCell id="1" parent="0" />
        <mxCell id="WjUBRMUbD-7mM8TeqNFB-3" value="" style="edgeStyle=orthogonalEdgeStyle;rounded=0;orthogonalLoop=1;jettySize=auto;html=1;" edge="1" parent="1" source="WjUBRMUbD-7mM8TeqNFB-1" target="WjUBRMUbD-7mM8TeqNFB-2">
          <mxGeometry relative="1" as="geometry" />
        </mxCell>
        <mxCell id="WjUBRMUbD-7mM8TeqNFB-8" value="" style="edgeStyle=orthogonalEdgeStyle;rounded=0;orthogonalLoop=1;jettySize=auto;html=1;" edge="1" parent="1" source="WjUBRMUbD-7mM8TeqNFB-1" target="WjUBRMUbD-7mM8TeqNFB-7">
          <mxGeometry relative="1" as="geometry" />
        </mxCell>
        <mxCell id="WjUBRMUbD-7mM8TeqNFB-10" value="" style="edgeStyle=orthogonalEdgeStyle;rounded=0;orthogonalLoop=1;jettySize=auto;html=1;" edge="1" parent="1" source="WjUBRMUbD-7mM8TeqNFB-1" target="WjUBRMUbD-7mM8TeqNFB-9">
          <mxGeometry relative="1" as="geometry" />
        </mxCell>
        <mxCell id="WjUBRMUbD-7mM8TeqNFB-55" value="" style="edgeStyle=orthogonalEdgeStyle;rounded=0;orthogonalLoop=1;jettySize=auto;html=1;fontSize=17;" edge="1" parent="1" source="WjUBRMUbD-7mM8TeqNFB-1" target="WjUBRMUbD-7mM8TeqNFB-54">
          <mxGeometry relative="1" as="geometry" />
        </mxCell>
        <mxCell id="WjUBRMUbD-7mM8TeqNFB-1" value="Home" style="rounded=1;whiteSpace=wrap;html=1;" vertex="1" parent="1">
          <mxGeometry x="320" y="50" width="120" height="60" as="geometry" />
        </mxCell>
        <mxCell id="WjUBRMUbD-7mM8TeqNFB-12" value="" style="edgeStyle=orthogonalEdgeStyle;rounded=0;orthogonalLoop=1;jettySize=auto;html=1;" edge="1" parent="1" source="WjUBRMUbD-7mM8TeqNFB-2" target="WjUBRMUbD-7mM8TeqNFB-11">
          <mxGeometry relative="1" as="geometry" />
        </mxCell>
        <mxCell id="WjUBRMUbD-7mM8TeqNFB-17" value="" style="edgeStyle=orthogonalEdgeStyle;rounded=0;orthogonalLoop=1;jettySize=auto;html=1;" edge="1" parent="1" source="WjUBRMUbD-7mM8TeqNFB-2" target="WjUBRMUbD-7mM8TeqNFB-16">
          <mxGeometry relative="1" as="geometry" />
        </mxCell>
        <mxCell id="WjUBRMUbD-7mM8TeqNFB-19" value="" style="edgeStyle=orthogonalEdgeStyle;rounded=0;orthogonalLoop=1;jettySize=auto;html=1;" edge="1" parent="1" source="WjUBRMUbD-7mM8TeqNFB-2" target="WjUBRMUbD-7mM8TeqNFB-18">
          <mxGeometry relative="1" as="geometry" />
        </mxCell>
        <mxCell id="WjUBRMUbD-7mM8TeqNFB-2" value="Danh mục" style="shape=trapezoid;perimeter=trapezoidPerimeter;whiteSpace=wrap;html=1;fixedSize=1;rounded=1;" vertex="1" parent="1">
          <mxGeometry x="-80" y="170" width="120" height="60" as="geometry" />
        </mxCell>
        <mxCell id="WjUBRMUbD-7mM8TeqNFB-42" value="" style="edgeStyle=orthogonalEdgeStyle;rounded=0;orthogonalLoop=1;jettySize=auto;html=1;fontSize=17;" edge="1" parent="1" source="WjUBRMUbD-7mM8TeqNFB-7" target="WjUBRMUbD-7mM8TeqNFB-41">
          <mxGeometry relative="1" as="geometry" />
        </mxCell>
        <mxCell id="WjUBRMUbD-7mM8TeqNFB-44" value="" style="edgeStyle=orthogonalEdgeStyle;rounded=0;orthogonalLoop=1;jettySize=auto;html=1;fontSize=17;" edge="1" parent="1" source="WjUBRMUbD-7mM8TeqNFB-7" target="WjUBRMUbD-7mM8TeqNFB-43">
          <mxGeometry relative="1" as="geometry" />
        </mxCell>
        <mxCell id="WjUBRMUbD-7mM8TeqNFB-46" value="" style="edgeStyle=orthogonalEdgeStyle;rounded=0;orthogonalLoop=1;jettySize=auto;html=1;fontSize=17;" edge="1" parent="1" source="WjUBRMUbD-7mM8TeqNFB-7" target="WjUBRMUbD-7mM8TeqNFB-45">
          <mxGeometry relative="1" as="geometry" />
        </mxCell>
        <mxCell id="WjUBRMUbD-7mM8TeqNFB-47" value="" style="edgeStyle=orthogonalEdgeStyle;rounded=0;orthogonalLoop=1;jettySize=auto;html=1;fontSize=17;" edge="1" parent="1" source="WjUBRMUbD-7mM8TeqNFB-7" target="WjUBRMUbD-7mM8TeqNFB-43">
          <mxGeometry relative="1" as="geometry" />
        </mxCell>
        <mxCell id="WjUBRMUbD-7mM8TeqNFB-49" value="" style="edgeStyle=orthogonalEdgeStyle;rounded=0;orthogonalLoop=1;jettySize=auto;html=1;fontSize=17;" edge="1" parent="1" source="WjUBRMUbD-7mM8TeqNFB-7" target="WjUBRMUbD-7mM8TeqNFB-48">
          <mxGeometry relative="1" as="geometry" />
        </mxCell>
        <mxCell id="WjUBRMUbD-7mM8TeqNFB-53" value="" style="edgeStyle=orthogonalEdgeStyle;rounded=0;orthogonalLoop=1;jettySize=auto;html=1;fontSize=17;" edge="1" parent="1" source="WjUBRMUbD-7mM8TeqNFB-7" target="WjUBRMUbD-7mM8TeqNFB-52">
          <mxGeometry relative="1" as="geometry" />
        </mxCell>
        <mxCell id="WjUBRMUbD-7mM8TeqNFB-7" value="Người dùng" style="shape=trapezoid;perimeter=trapezoidPerimeter;whiteSpace=wrap;html=1;fixedSize=1;rounded=1;" vertex="1" parent="1">
          <mxGeometry x="740" y="170" width="120" height="60" as="geometry" />
        </mxCell>
        <mxCell id="WjUBRMUbD-7mM8TeqNFB-9" value="Bài viết" style="shape=trapezoid;perimeter=trapezoidPerimeter;whiteSpace=wrap;html=1;fixedSize=1;rounded=1;" vertex="1" parent="1">
          <mxGeometry x="320" y="170" width="120" height="60" as="geometry" />
        </mxCell>
        <mxCell id="WjUBRMUbD-7mM8TeqNFB-11" value="Tranh luận" style="ellipse;whiteSpace=wrap;html=1;rounded=1;" vertex="1" parent="1">
          <mxGeometry x="-80" y="310" width="120" height="60" as="geometry" />
        </mxCell>
        <mxCell id="WjUBRMUbD-7mM8TeqNFB-16" value="Truyền cảm hứng" style="ellipse;whiteSpace=wrap;html=1;rounded=1;" vertex="1" parent="1">
          <mxGeometry x="70" y="310" width="120" height="60" as="geometry" />
        </mxCell>
        <mxCell id="WjUBRMUbD-7mM8TeqNFB-18" value="Khoa học công nghệ" style="ellipse;whiteSpace=wrap;html=1;rounded=1;" vertex="1" parent="1">
          <mxGeometry x="-230" y="310" width="120" height="60" as="geometry" />
        </mxCell>
        <mxCell id="WjUBRMUbD-7mM8TeqNFB-20" value="" style="endArrow=classic;html=1;rounded=0;exitX=0;exitY=0.5;exitDx=0;exitDy=0;entryX=0.5;entryY=0;entryDx=0;entryDy=0;" edge="1" parent="1" source="WjUBRMUbD-7mM8TeqNFB-2" target="WjUBRMUbD-7mM8TeqNFB-21">
          <mxGeometry width="50" height="50" relative="1" as="geometry">
            <mxPoint x="-140" y="370" as="sourcePoint" />
            <mxPoint x="-300" y="310" as="targetPoint" />
            <Array as="points">
              <mxPoint x="-300" y="200" />
            </Array>
          </mxGeometry>
        </mxCell>
        <mxCell id="WjUBRMUbD-7mM8TeqNFB-21" value="Thể thao" style="ellipse;whiteSpace=wrap;html=1;" vertex="1" parent="1">
          <mxGeometry x="-340" y="310" width="80" height="60" as="geometry" />
        </mxCell>
        <mxCell id="WjUBRMUbD-7mM8TeqNFB-22" value="" style="endArrow=classic;html=1;rounded=0;exitX=1;exitY=0.5;exitDx=0;exitDy=0;" edge="1" parent="1" source="WjUBRMUbD-7mM8TeqNFB-2" target="WjUBRMUbD-7mM8TeqNFB-23">
          <mxGeometry width="50" height="50" relative="1" as="geometry">
            <mxPoint x="220" y="400" as="sourcePoint" />
            <mxPoint x="240" y="340" as="targetPoint" />
            <Array as="points">
              <mxPoint x="240" y="200" />
            </Array>
          </mxGeometry>
        </mxCell>
        <mxCell id="WjUBRMUbD-7mM8TeqNFB-23" value="Game" style="ellipse;whiteSpace=wrap;html=1;" vertex="1" parent="1">
          <mxGeometry x="200" y="310" width="80" height="60" as="geometry" />
        </mxCell>
        <mxCell id="WjUBRMUbD-7mM8TeqNFB-30" value="" style="endArrow=none;html=1;rounded=0;entryX=0.5;entryY=1;entryDx=0;entryDy=0;" edge="1" parent="1" target="WjUBRMUbD-7mM8TeqNFB-21">
          <mxGeometry width="50" height="50" relative="1" as="geometry">
            <mxPoint x="-300" y="440" as="sourcePoint" />
            <mxPoint x="-310" y="380" as="targetPoint" />
          </mxGeometry>
        </mxCell>
        <mxCell id="WjUBRMUbD-7mM8TeqNFB-31" value="" style="endArrow=none;html=1;rounded=0;entryX=0.5;entryY=1;entryDx=0;entryDy=0;" edge="1" parent="1" target="WjUBRMUbD-7mM8TeqNFB-16">
          <mxGeometry width="50" height="50" relative="1" as="geometry">
            <mxPoint x="130" y="440" as="sourcePoint" />
            <mxPoint x="129.5" y="390" as="targetPoint" />
          </mxGeometry>
        </mxCell>
        <mxCell id="WjUBRMUbD-7mM8TeqNFB-32" value="" style="endArrow=none;html=1;rounded=0;entryX=0.5;entryY=1;entryDx=0;entryDy=0;" edge="1" parent="1" target="WjUBRMUbD-7mM8TeqNFB-11">
          <mxGeometry width="50" height="50" relative="1" as="geometry">
            <mxPoint x="-20" y="440" as="sourcePoint" />
            <mxPoint x="-9.5" y="400" as="targetPoint" />
          </mxGeometry>
        </mxCell>
        <mxCell id="WjUBRMUbD-7mM8TeqNFB-33" value="" style="endArrow=none;html=1;rounded=0;entryX=0.5;entryY=1;entryDx=0;entryDy=0;" edge="1" parent="1" target="WjUBRMUbD-7mM8TeqNFB-23">
          <mxGeometry width="50" height="50" relative="1" as="geometry">
            <mxPoint x="240" y="440" as="sourcePoint" />
            <mxPoint x="240" y="380" as="targetPoint" />
          </mxGeometry>
        </mxCell>
        <mxCell id="WjUBRMUbD-7mM8TeqNFB-34" value="" style="endArrow=none;html=1;rounded=0;entryX=0.5;entryY=1;entryDx=0;entryDy=0;" edge="1" parent="1" target="WjUBRMUbD-7mM8TeqNFB-18">
          <mxGeometry width="50" height="50" relative="1" as="geometry">
            <mxPoint x="-170" y="440" as="sourcePoint" />
            <mxPoint x="-170.5" y="400" as="targetPoint" />
          </mxGeometry>
        </mxCell>
        <mxCell id="WjUBRMUbD-7mM8TeqNFB-35" value="" style="endArrow=none;html=1;rounded=0;" edge="1" parent="1">
          <mxGeometry width="50" height="50" relative="1" as="geometry">
            <mxPoint x="-300" y="440" as="sourcePoint" />
            <mxPoint x="380" y="440" as="targetPoint" />
          </mxGeometry>
        </mxCell>
        <mxCell id="WjUBRMUbD-7mM8TeqNFB-36" value="" style="endArrow=classic;html=1;rounded=0;entryX=0.5;entryY=1;entryDx=0;entryDy=0;" edge="1" parent="1" target="WjUBRMUbD-7mM8TeqNFB-9">
          <mxGeometry width="50" height="50" relative="1" as="geometry">
            <mxPoint x="380" y="440" as="sourcePoint" />
            <mxPoint x="310" y="360" as="targetPoint" />
          </mxGeometry>
        </mxCell>
        <mxCell id="WjUBRMUbD-7mM8TeqNFB-41" value="Bài viết của tôi" style="ellipse;whiteSpace=wrap;html=1;rounded=1;" vertex="1" parent="1">
          <mxGeometry x="1000" y="320" width="120" height="60" as="geometry" />
        </mxCell>
        <mxCell id="WjUBRMUbD-7mM8TeqNFB-43" value="Bài viết nháp" style="ellipse;whiteSpace=wrap;html=1;rounded=1;" vertex="1" parent="1">
          <mxGeometry x="740" y="320" width="120" height="60" as="geometry" />
        </mxCell>
        <mxCell id="WjUBRMUbD-7mM8TeqNFB-45" value="Đã lưu" style="ellipse;whiteSpace=wrap;html=1;rounded=1;" vertex="1" parent="1">
          <mxGeometry x="870" y="320" width="120" height="60" as="geometry" />
        </mxCell>
        <mxCell id="WjUBRMUbD-7mM8TeqNFB-48" value="Tạo bài viết" style="ellipse;whiteSpace=wrap;html=1;rounded=1;" vertex="1" parent="1">
          <mxGeometry x="560" y="170" width="120" height="60" as="geometry" />
        </mxCell>
        <mxCell id="WjUBRMUbD-7mM8TeqNFB-50" value="" style="endArrow=classic;html=1;rounded=0;fontSize=17;exitX=0.5;exitY=1;exitDx=0;exitDy=0;entryX=0;entryY=0.5;entryDx=0;entryDy=0;" edge="1" parent="1" source="WjUBRMUbD-7mM8TeqNFB-48" target="WjUBRMUbD-7mM8TeqNFB-43">
          <mxGeometry width="50" height="50" relative="1" as="geometry">
            <mxPoint x="810" y="410" as="sourcePoint" />
            <mxPoint x="860" y="360" as="targetPoint" />
            <Array as="points">
              <mxPoint x="620" y="350" />
            </Array>
          </mxGeometry>
        </mxCell>
        <mxCell id="WjUBRMUbD-7mM8TeqNFB-51" value="" style="endArrow=classic;html=1;rounded=0;fontSize=17;exitX=0;exitY=0.5;exitDx=0;exitDy=0;" edge="1" parent="1" source="WjUBRMUbD-7mM8TeqNFB-48" target="WjUBRMUbD-7mM8TeqNFB-9">
          <mxGeometry width="50" height="50" relative="1" as="geometry">
            <mxPoint x="810" y="410" as="sourcePoint" />
            <mxPoint x="860" y="360" as="targetPoint" />
          </mxGeometry>
        </mxCell>
        <mxCell id="WjUBRMUbD-7mM8TeqNFB-52" value="Cài đặt người dùng" style="ellipse;whiteSpace=wrap;html=1;rounded=1;" vertex="1" parent="1">
          <mxGeometry x="1130" y="320" width="120" height="60" as="geometry" />
        </mxCell>
        <mxCell id="WjUBRMUbD-7mM8TeqNFB-57" value="" style="edgeStyle=orthogonalEdgeStyle;rounded=0;orthogonalLoop=1;jettySize=auto;html=1;fontSize=17;" edge="1" parent="1" source="WjUBRMUbD-7mM8TeqNFB-54" target="WjUBRMUbD-7mM8TeqNFB-56">
          <mxGeometry relative="1" as="geometry" />
        </mxCell>
        <mxCell id="WjUBRMUbD-7mM8TeqNFB-54" value="Xuất bản sách" style="shape=trapezoid;perimeter=trapezoidPerimeter;whiteSpace=wrap;html=1;fixedSize=1;rounded=1;" vertex="1" parent="1">
          <mxGeometry x="740" y="-90" width="120" height="60" as="geometry" />
        </mxCell>
        <mxCell id="WjUBRMUbD-7mM8TeqNFB-56" value="Giao diện tương tác xuất bản sách?" style="ellipse;whiteSpace=wrap;html=1;rounded=1;" vertex="1" parent="1">
          <mxGeometry x="740" y="-240" width="120" height="60" as="geometry" />
        </mxCell>
      </root>
    </mxGraphModel>
  </diagram>
</mxfile>
